<svg width="22" height="22" viewBox="0 0 22 22" fill="none" xmlns="http://www.w3.org/2000/svg">
<path d="M20.9889 4.47766H1.01114C0.453621 4.47766 0 4.93128 0 5.48889V8.52106C0 8.80814 0.147813 9.07794 0.385816 9.22515C1.00697 9.60933 1.37779 10.2728 1.37779 11C1.37779 11.7271 1.00697 12.3906 0.385773 12.7748C0.147812 12.922 0 13.1918 0 13.4788V16.511C0 17.0686 0.453621 17.5222 1.01114 17.5222H20.9889C21.5464 17.5222 22 17.0685 22 16.511V5.48889C22 4.93128 21.5464 4.47766 20.9889 4.47766ZM21.3555 16.511C21.3555 16.7132 21.191 16.8776 20.9889 16.8776H5.1223V16.8555C5.1223 16.6775 4.97806 16.5332 4.80004 16.5332C4.62202 16.5332 4.47777 16.6775 4.47777 16.8555V16.8776H1.01114C0.808973 16.8776 0.644531 16.7131 0.644531 16.511V13.4788C0.644531 13.4133 0.67534 13.3535 0.72484 13.3229C1.53725 12.8204 2.02228 11.952 2.02228 10.9999C2.02228 10.0478 1.53725 9.17943 0.72484 8.67695C0.67534 8.64628 0.644531 8.58655 0.644531 8.52098V5.4888C0.644531 5.28663 0.808973 5.12219 1.01114 5.12219H4.47777V5.14436C4.47777 5.32234 4.62202 5.46663 4.80004 5.46663C4.97806 5.46663 5.1223 5.32234 5.1223 5.14436V5.12219H20.9889C21.191 5.12219 21.3555 5.28668 21.3555 5.4888V16.511Z" fill="#C4C4C4"/>
<path d="M4.80029 10.3334C4.62227 10.3334 4.47803 10.4777 4.47803 10.6556V11.3445C4.47803 11.5225 4.62227 11.6668 4.80029 11.6668C4.97831 11.6668 5.12256 11.5225 5.12256 11.3445V10.6556C5.12256 10.4776 4.97831 10.3334 4.80029 10.3334Z" fill="#C4C4C4"/>
<path d="M4.80029 6.20007C4.62227 6.20007 4.47803 6.34436 4.47803 6.52234V7.21121C4.47803 7.38919 4.62227 7.53348 4.80029 7.53348C4.97831 7.53348 5.12256 7.38919 5.12256 7.21121V6.52234C5.12256 6.34432 4.97831 6.20007 4.80029 6.20007Z" fill="#C4C4C4"/>
<path d="M4.80029 8.2666C4.62227 8.2666 4.47803 8.41089 4.47803 8.58887V9.27774C4.47803 9.45572 4.62227 9.60001 4.80029 9.60001C4.97831 9.60001 5.12256 9.45572 5.12256 9.27774V8.58887C5.12256 8.41089 4.97831 8.2666 4.80029 8.2666Z" fill="#C4C4C4"/>
<path d="M4.80029 12.3999C4.62227 12.3999 4.47803 12.5442 4.47803 12.7222V13.411C4.47803 13.589 4.62227 13.7333 4.80029 13.7333C4.97831 13.7333 5.12256 13.589 5.12256 13.411V12.7222C5.12256 12.5441 4.97831 12.3999 4.80029 12.3999Z" fill="#C4C4C4"/>
<path d="M4.80029 14.4666C4.62227 14.4666 4.47803 14.6108 4.47803 14.7888V15.4777C4.47803 15.6557 4.62227 15.8 4.80029 15.8C4.97831 15.8 5.12256 15.6557 5.12256 15.4777V14.7888C5.12256 14.6108 4.97831 14.4666 4.80029 14.4666Z" fill="#C4C4C4"/>
</svg>
