<svg width="19" height="19" viewBox="0 0 19 19" fill="none" xmlns="http://www.w3.org/2000/svg">
<g clip-path="url(#clip0)">
<path d="M15.0637 2.4895H13.3448V1.72053C13.3448 1.47173 13.0734 1.35866 12.8246 1.35866H11.4902C11.1736 0.453964 10.382 0.00161702 9.47728 0.00161702C8.58254 -0.03202 7.76872 0.516606 7.46434 1.35866H6.15254C5.90374 1.35866 5.65495 1.47173 5.65495 1.72053V2.4895H3.936C2.91736 2.50037 2.08401 3.30394 2.03613 4.32149V17.2812C2.03613 18.2764 2.94083 19.0001 3.936 19.0001H15.0637C16.0589 19.0001 16.9636 18.2764 16.9636 17.2812V4.32153C16.9157 3.30394 16.0824 2.50037 15.0637 2.4895ZM6.5596 2.26335H7.80357C8.02071 2.23686 8.19513 2.07166 8.23332 1.85624C8.36726 1.27294 8.879 0.854232 9.47728 0.838474C10.07 0.85644 10.5741 1.27645 10.6986 1.85624C10.7392 2.07911 10.9251 2.24642 11.151 2.26335H12.4402V4.07274H6.5596V2.26335ZM16.0589 17.2812C16.0589 17.7788 15.5613 18.0955 15.0637 18.0955H3.936C3.43841 18.0955 2.94083 17.7788 2.94083 17.2812V4.32153C2.98697 3.8036 3.41607 3.40372 3.936 3.39424H5.65491V4.54773C5.6788 4.80115 5.89829 4.99072 6.15249 4.97748H12.8246C13.0835 4.99163 13.3098 4.80466 13.3448 4.54773V3.3942H15.0637C15.5836 3.40372 16.0127 3.80356 16.0588 4.32149V17.2812H16.0589Z" fill="#C4C4C4"/>
<path d="M7.75844 10.1114C7.58878 9.93253 7.30713 9.92244 7.12513 10.0888L5.67761 11.4684L5.06695 10.8351C4.89729 10.6563 4.61564 10.6462 4.43365 10.8125C4.25845 10.9961 4.25845 11.2849 4.43365 11.4684L5.36094 12.4183C5.4412 12.5082 5.55713 12.5579 5.67757 12.5541C5.79688 12.5524 5.91069 12.5036 5.9942 12.4183L7.75835 10.7447C7.93325 10.5842 7.94493 10.3124 7.78445 10.1375C7.77623 10.1284 7.76753 10.1197 7.75844 10.1114Z" fill="#C4C4C4"/>
<path d="M14.2495 11.0839H9.04756C8.79773 11.0839 8.59521 11.2864 8.59521 11.5363C8.59521 11.7861 8.79773 11.9886 9.04756 11.9886H14.2495C14.4994 11.9886 14.7019 11.7861 14.7019 11.5363C14.7019 11.2864 14.4994 11.0839 14.2495 11.0839Z" fill="#C4C4C4"/>
<path d="M7.75844 6.49262C7.58878 6.31378 7.30713 6.30369 7.12513 6.47002L5.67761 7.84966L5.06695 7.21636C4.89729 7.03752 4.61564 7.02743 4.43365 7.19376C4.25845 7.37731 4.25845 7.6661 4.43365 7.84966L5.36094 8.79959C5.4412 8.88946 5.55713 8.93916 5.67757 8.93531C5.79688 8.93362 5.91069 8.88483 5.9942 8.79959L7.75835 7.12592C7.93325 6.96548 7.94493 6.69362 7.78445 6.51876C7.77623 6.50963 7.76753 6.50093 7.75844 6.49262Z" fill="#C4C4C4"/>
<path d="M14.2495 7.46509H9.04756C8.79773 7.46509 8.59521 7.6676 8.59521 7.91744C8.59521 8.16727 8.79773 8.36978 9.04756 8.36978H14.2495C14.4994 8.36978 14.7019 8.16727 14.7019 7.91744C14.7019 7.6676 14.4994 7.46509 14.2495 7.46509Z" fill="#C4C4C4"/>
<path d="M7.75844 13.7302C7.58878 13.5513 7.30713 13.5413 7.12513 13.7076L5.67761 15.0872L5.06695 14.4539C4.89729 14.2751 4.61564 14.265 4.43365 14.4313C4.25845 14.6149 4.25845 14.9037 4.43365 15.0872L5.36094 16.0372C5.4412 16.127 5.55713 16.1767 5.67757 16.1729C5.79688 16.1712 5.91069 16.1224 5.9942 16.0372L7.75835 14.3635C7.93325 14.203 7.94493 13.9312 7.78445 13.7563C7.77623 13.7472 7.76753 13.7385 7.75844 13.7302Z" fill="#C4C4C4"/>
<path d="M14.2495 14.7027H9.04756C8.79773 14.7027 8.59521 14.9052 8.59521 15.155C8.59521 15.4048 8.79773 15.6074 9.04756 15.6074H14.2495C14.4994 15.6074 14.7019 15.4048 14.7019 15.155C14.7019 14.9052 14.4994 14.7027 14.2495 14.7027Z" fill="#C4C4C4"/>
</g>
<defs>
<clipPath id="clip0">
<rect width="19" height="19" fill="white"/>
</clipPath>
</defs>
</svg>
