<svg width="24" height="24" viewBox="0 0 24 24" fill="none" xmlns="http://www.w3.org/2000/svg">
<path d="M23.2258 5.03229H5.41936V5.41938C5.41936 5.63337 5.2462 5.80647 5.03227 5.80647C4.81828 5.80647 4.64517 5.63332 4.64517 5.41938V5.03229H0.774188C0.346641 5.03229 0 5.37888 0 5.80647V9.21415C0 9.40929 0.0959531 9.59472 0.261891 9.69738C1.03341 10.1746 1.54838 11.0261 1.54838 12C1.54838 12.9738 1.03341 13.8255 0.261891 14.3027C0.0959531 14.4053 0 14.5908 0 14.7859V18.1936C0 18.6211 0.346641 18.9678 0.774188 18.9678H4.64517V18.5807C4.64517 18.3667 4.81833 18.1936 5.03227 18.1936C5.24625 18.1936 5.41936 18.3667 5.41936 18.5807V18.9678H23.2258C23.6534 18.9678 24 18.6211 24 18.1936V5.80647C24 5.37888 23.6534 5.03229 23.2258 5.03229ZM5.41936 17.0323C5.41936 17.2463 5.2462 17.4194 5.03227 17.4194C4.81828 17.4194 4.64517 17.2462 4.64517 17.0323V16.2581C4.64517 16.0441 4.81833 15.871 5.03227 15.871C5.24625 15.871 5.41936 16.0442 5.41936 16.2581V17.0323ZM5.41936 14.7097C5.41936 14.9237 5.2462 15.0968 5.03227 15.0968C4.81828 15.0968 4.64517 14.9236 4.64517 14.7097V13.9355C4.64517 13.7215 4.81833 13.5484 5.03227 13.5484C5.24625 13.5484 5.41936 13.7216 5.41936 13.9355V14.7097ZM5.41936 12.3871C5.41936 12.6011 5.2462 12.7742 5.03227 12.7742C4.81828 12.7742 4.64517 12.6011 4.64517 12.3871V11.6129C4.64517 11.3989 4.81833 11.2258 5.03227 11.2258C5.24625 11.2258 5.41936 11.399 5.41936 11.6129V12.3871ZM5.41936 10.0646C5.41936 10.2785 5.2462 10.4516 5.03227 10.4516C4.81828 10.4516 4.64517 10.2785 4.64517 10.0646V9.29037C4.64517 9.07638 4.81833 8.90327 5.03227 8.90327C5.24625 8.90327 5.41936 9.07643 5.41936 9.29037V10.0646ZM5.41936 7.74194C5.41936 7.95593 5.2462 8.12904 5.03227 8.12904C4.81828 8.12904 4.64517 7.95588 4.64517 7.74194V6.96776C4.64517 6.75377 4.81833 6.58066 5.03227 6.58066C5.24625 6.58066 5.41936 6.75382 5.41936 6.96776V7.74194Z" fill="#108EE9"/>
<path d="M22.839 18.1935H6.58094C6.36714 18.1935 6.19385 18.0202 6.19385 17.8064V6.19346C6.19385 5.97966 6.36714 5.80637 6.58094 5.80637H22.839C23.0528 5.80637 23.2261 5.97966 23.2261 6.19346V17.8064C23.2261 18.0202 23.0528 18.1935 22.839 18.1935Z" fill="#108EE9"/>
</svg>
