<svg width="19" height="19" viewBox="0 0 19 19" fill="none" xmlns="http://www.w3.org/2000/svg">
<g clip-path="url(#clip0)">
<path d="M12.6708 1.43983H11.2806C11.1071 1.43446 10.958 1.31518 10.9147 1.14718C10.783 0.462767 10.1723 -0.023709 9.47578 0.000892592C8.77504 -0.0113848 8.16737 0.48298 8.03685 1.17159C7.99176 1.33498 7.84037 1.44599 7.671 1.43987H6.32959V3.87879H12.6708V1.43983Z" fill="#108EE9"/>
<path d="M16.5732 17.8781V3.90317C16.5747 3.35092 16.1282 2.90203 15.5759 2.90053C15.5506 2.90049 15.5253 2.90137 15.5001 2.90319H13.4026V4.14704C13.4026 4.34217 13.2806 4.61046 13.0855 4.61046H5.89075C5.69561 4.61046 5.59809 4.34217 5.59809 4.14704V2.90324H3.50061C2.94986 2.86281 2.47057 3.27656 2.43019 3.82736C2.42832 3.85262 2.42744 3.87792 2.42753 3.90322V17.8782C2.4139 18.4841 2.89412 18.9864 3.5001 19C3.50029 19 3.50047 19 3.50066 19H15.5001C16.1061 18.9867 16.5865 18.4847 16.5732 17.8787C16.5732 17.8785 16.5732 17.8783 16.5732 17.8781ZM7.52481 14.6588L5.62246 16.4392C5.56164 16.512 5.47327 16.5561 5.37859 16.5611C5.27669 16.5571 5.18038 16.5133 5.11031 16.4392L4.11038 15.4148C3.97747 15.266 3.98835 15.0381 4.13475 14.9027C4.27699 14.7632 4.50466 14.7632 4.6469 14.9027L5.37855 15.6831L7.03703 14.1222C7.20331 14.0075 7.43117 14.0492 7.54591 14.2155C7.63956 14.3511 7.63087 14.5326 7.52481 14.6588ZM7.52481 10.7565L5.62246 12.5369C5.56164 12.6097 5.47327 12.6539 5.37859 12.6588C5.27669 12.6548 5.18038 12.611 5.11031 12.5369L4.11038 11.5126C3.97747 11.3637 3.98835 11.1359 4.13475 11.0004C4.27699 10.861 4.50466 10.861 4.6469 11.0004L5.37855 11.7808L7.03703 10.2199C7.20331 10.1052 7.43117 10.1469 7.54591 10.3132C7.63956 10.4489 7.63087 10.6304 7.52481 10.7565ZM7.52481 6.85424L5.62246 8.63465C5.56164 8.70743 5.47327 8.75159 5.37859 8.75659C5.27669 8.75257 5.18038 8.70878 5.11031 8.63465L4.11038 7.6103C3.97747 7.46148 3.98835 7.23362 4.13475 7.09815C4.27699 6.95871 4.50466 6.95871 4.6469 7.09815L5.37855 7.87859L7.03703 6.31767C7.20331 6.20293 7.43117 6.24466 7.54591 6.41094C7.63956 6.5466 7.63087 6.7281 7.52481 6.85424ZM14.6221 16.0733H9.01253C8.81049 16.0733 8.64668 15.9095 8.64668 15.7075C8.64668 15.5054 8.81049 15.3416 9.01253 15.3416H14.622C14.824 15.3416 14.9879 15.5054 14.9879 15.7075C14.9879 15.9095 14.8241 16.0733 14.6221 16.0733ZM14.6221 12.1711H9.01253C8.81049 12.1711 8.64668 12.0073 8.64668 11.8052C8.64668 11.6032 8.81049 11.4394 9.01253 11.4394H14.622C14.824 11.4394 14.9879 11.6032 14.9879 11.8052C14.9879 12.0073 14.8241 12.1711 14.6221 12.1711ZM14.6221 8.2688H9.01253C8.81049 8.2688 8.64668 8.105 8.64668 7.90296C8.64668 7.70091 8.81049 7.53711 9.01253 7.53711H14.622C14.824 7.53711 14.9879 7.70091 14.9879 7.90296C14.9879 8.10504 14.8241 8.2688 14.6221 8.2688Z" fill="#108EE9"/>
</g>
<defs>
<clipPath id="clip0">
<rect width="19" height="19" fill="white"/>
</clipPath>
</defs>
</svg>
