<svg width="23" height="23" viewBox="0 0 23 23" fill="none" xmlns="http://www.w3.org/2000/svg">
<path d="M14.0332 11.5002L22.6326 2.90047C22.8691 2.66374 22.9996 2.34791 23 2.01114C23 1.67418 22.8695 1.35798 22.6326 1.12162L21.879 0.368229C21.6421 0.130936 21.3262 0.000976562 20.9891 0.000976562C20.6525 0.000976562 20.3367 0.130936 20.0998 0.368229L11.5004 8.96742L2.90062 0.368229C2.66407 0.130936 2.34806 0.000976562 2.0111 0.000976562C1.67451 0.000976562 1.3585 0.130936 1.12195 0.368229L0.368 1.12162C-0.122667 1.61229 -0.122667 2.41037 0.368 2.90047L8.96757 11.5002L0.368 20.0996C0.131268 20.3367 0.000934959 20.6525 0.000934959 20.9893C0.000934959 21.3261 0.131268 21.6419 0.368 21.8788L1.12176 22.6322C1.35831 22.8693 1.67451 22.9995 2.01091 22.9995C2.34787 22.9995 2.66389 22.8693 2.90043 22.6322L11.5002 14.0328L20.0996 22.6322C20.3365 22.8693 20.6523 22.9995 20.9889 22.9995H20.9893C21.326 22.9995 21.6419 22.8693 21.8788 22.6322L22.6324 21.8788C22.8689 21.6421 22.9994 21.3261 22.9994 20.9893C22.9994 20.6525 22.8689 20.3367 22.6324 20.0998L14.0332 11.5002Z" fill="white"/>
</svg>
